<svg width="19" height="19" viewBox="0 0 19 19" fill="none" xmlns="http://www.w3.org/2000/svg">
<path fill-rule="evenodd" clip-rule="evenodd" d="M17.9506 1.38921C18.2348 1.67342 18.377 2.02868 18.377 2.455C18.377 2.88131 18.2348 3.23657 17.9506 3.52079L11.5085 9.96289L17.9506 16.405C18.2348 16.6892 18.377 17.0445 18.377 17.4708C18.377 17.8971 18.2348 18.2524 17.9506 18.5366C17.6664 18.8208 17.3112 18.9629 16.8848 18.9629C16.4585 18.9629 16.1033 18.8208 15.8191 18.5366L9.37695 12.0945L2.93485 18.5366C2.65064 18.8208 2.29538 18.9629 1.86906 18.9629C1.44274 18.9629 1.08748 18.8208 0.803269 18.5366C0.519057 18.2524 0.376953 17.8971 0.376953 17.4708C0.376953 17.0445 0.519057 16.6892 0.803269 16.405L7.24537 9.96289L0.803269 3.52079C0.519057 3.23657 0.376953 2.88131 0.376953 2.455C0.376953 2.02868 0.519057 1.67342 0.803269 1.38921C1.08748 1.10499 1.44274 0.962891 1.86906 0.962891C2.29538 0.962891 2.65064 1.10499 2.93485 1.38921L9.37695 7.83131L15.8191 1.38921C16.1033 1.10499 16.4585 0.962891 16.8848 0.962891C17.3112 0.962891 17.6664 1.10499 17.9506 1.38921Z" fill="#EEF2F4"/>
</svg>
